<svg width="113" height="115" viewBox="0 0 113 115" fill="none" xmlns="http://www.w3.org/2000/svg">
<ellipse cx="58.5884" cy="87.0222" rx="34" ry="15.5" fill="white"/>
<path d="M33.0765 73.036C33.0765 74.087 33.1007 75.6836 32.0397 76.3078C31.3594 76.7079 30.5384 76.8474 29.8508 77.2294C29.0969 77.6482 28.2897 78.6167 27.685 79.257C25.0169 82.082 24.3672 86.0719 24.3672 89.8326" stroke="black" stroke-width="4" stroke-linecap="round"/>
<path d="M83.881 75.1097C83.9659 75.7888 85.6434 76.6974 86.1159 77.1373C87.2684 78.2103 88.594 79.1889 89.7909 80.2017C90.5135 80.8132 91.0165 81.8895 91.853 82.3675C92.1361 82.5293 92.5903 83.7042 92.5903 83.6117" stroke="black" stroke-width="4" stroke-linecap="round"/>
<path d="M28.5884 21.5222L68.5884 17.5222L85.0884 23.5222V72.0222L42.5884 76.5222L28.5884 69.5222V21.5222Z" fill="#F3C891"/>
<path d="M58.3751 78.4275C58.2917 79.8465 56.5996 81.6554 57.3844 82.9895C57.9889 84.0172 59.0122 85.1743 60.0341 85.6853" stroke="#B86999" stroke-width="4" stroke-linecap="round"/>
<path d="M59.2046 77.8055C59.7802 77.8055 60.473 77.6284 60.8635 78.1165C61.4924 78.9027 62.6673 79.3582 63.4556 79.9713C64.4392 80.7363 63.1445 83.1526 63.1445 84.4412" stroke="#B86999" stroke-width="4" stroke-linecap="round"/>
<path d="M61.0708 87.3442C61.0708 89.4525 61.1196 91.4274 60.6676 93.4615C60.363 94.8322 61.1556 96.1971 61.8196 97.3208C62.4335 98.3596 62.9389 99.5288 63.6514 100.5C63.8818 100.815 64.6382 102.173 64.1813 101.03" stroke="#B86999" stroke-width="4" stroke-linecap="round"/>
<path d="M63.9739 85.0632C64.1145 86.3286 65.3167 87.3596 65.9438 88.3926C66.4492 89.225 67.053 90.9075 67.9138 91.4455C68.6868 91.9286 68.7906 93.2298 69.4691 93.7726C69.8231 94.0558 69.5727 95.6238 69.5727 95.9845C69.5727 97.6242 69.5727 99.2639 69.5727 100.904C69.5727 102.061 68.5725 101.652 67.5912 101.652C67.1227 101.652 65.6502 101.895 65.4254 101.445" stroke="#B86999" stroke-width="4" stroke-linecap="round"/>
<path d="M65.4254 100.616C65.1031 100.253 65.2181 99.7348 65.2181 99.2793C65.2181 97.5397 65.2181 95.8001 65.2181 94.0606C65.2181 92.7519 65.1744 88.8969 64.8149 90.1552C64.4659 91.3765 64.7368 93.4488 65.0107 94.6251C65.1389 95.1754 65.6219 98.1272 66.4623 98.1272C67.3335 98.1272 66.8234 94.4563 66.7503 94.1067C66.5209 93.0108 66.0087 91.6871 65.3218 90.7888C65.2574 90.7047 64.619 89.835 64.619 90.1898C64.619 91.1337 65.5832 91.9307 66.1167 92.5975C67.0341 93.7443 68.0316 94.8309 68.9967 95.9384C69.7562 96.8099 71.7623 98.7575 69.5727 97.2978" stroke="#B86999" stroke-width="4" stroke-linecap="round"/>
<path d="M58.5824 81.3307C59.1678 81.3307 60.656 83.036 60.656 82.1602C60.656 81.822 60.4752 80.2579 60.4487 80.7086C60.3759 81.9464 61.25 83.1265 61.6929 84.2338" stroke="#B86999" stroke-width="4" stroke-linecap="round"/>
<path d="M61.2422 93.1542C61.748 93.1542 62.0129 93.6668 62.2899 94.0194C63.2145 95.1962 63.9516 96.4921 64.7571 97.7506C64.8673 97.9228 65.4058 98.9897 65.379 98.2914C65.3708 98.0783 65.2023 97.856 65.1356 97.656" stroke="#B86999" stroke-width="4" stroke-linecap="round"/>
<path d="M64.7706 85.1239C64.8794 85.4866 65.5769 85.9893 65.8386 86.2595C66.4277 86.8675 67.0054 87.5384 67.5015 88.2265C68.0767 89.0244 68.8057 89.7784 69.3333 90.5991C69.9317 91.53 70.1993 92.5325 70.6379 93.5192C70.7985 93.8807 71.0975 94.2677 71.0975 94.675C71.0975 96.0281 70.4592 97.1881 69.8943 98.4063C69.2544 99.786 68.3319 101.343 68.1774 102.888C68.118 103.481 68.059 103.499 67.6907 103.131" stroke="#B86999" stroke-width="4" stroke-linecap="round"/>
<path d="M27.2912 21.1948C27.2912 32.8687 27.2912 44.5426 27.2912 56.2165C27.2912 59.5598 27.6589 63.1297 27.0292 66.4465C26.9455 66.8873 27.042 68.2836 26.6482 68.4741" stroke="#7D624A" stroke-width="4" stroke-linecap="round"/>
<path d="M26.6482 68.474C28.216 68.5462 29.4914 69.6062 30.8395 70.2942C33.3143 71.5572 35.4659 73.4547 37.6742 75.0982C38.9031 76.0128 40.329 76.9351 41.7345 77.575C42.2782 77.8226 43.0756 78.1762 42.0798 77.5981" stroke="#7D624A" stroke-width="4" stroke-linecap="round"/>
<path d="M42.2942 76.9759C44.2843 76.9759 46.2058 76.5612 48.2001 76.5612C52.3556 76.5612 56.4604 75.5894 60.5121 74.7871C63.6686 74.162 66.8885 73.4661 70.0973 73.1512C72.6347 72.9021 75.1887 73.1061 77.7297 72.8747C80.4625 72.6258 82.9438 73.8654 85.5884 73.8654" stroke="#7D624A" stroke-width="4" stroke-linecap="round"/>
<path d="M83.8737 24.5126C83.8737 40.2729 84.3023 87.5522 84.3023 71.7918" stroke="#7D624A" stroke-width="4" stroke-linecap="round"/>
<path d="M27.9342 20.5726C37.494 20.5726 46.8894 19.5769 56.3445 18.2916C57.8311 18.0895 59.3432 18.0184 60.8216 17.7617C61.8536 17.5825 62.8875 17.0474 63.9413 17.0474C64.1631 17.0474 66.3328 17.0638 65.4416 16.6327" stroke="#7D624A" stroke-width="4" stroke-linecap="round"/>
<path d="M66.5132 16.4254C66.5502 16.7119 69.633 17.2184 70.1091 17.4622C72.2237 18.5454 74.4517 19.8241 76.7176 20.5727C78.2756 21.0874 79.9812 21.3814 81.3971 22.2316C82.3781 22.8208 83.3461 23.4811 84.3024 24.0979" stroke="#7D624A" stroke-width="4" stroke-linecap="round"/>
<path d="M40.5416 93.5652V102.067" stroke="black" stroke-width="4" stroke-linecap="round"/>
<path d="M52.9836 42.2423C52.9836 40.557 56.2999 40.6871 57.5456 40.6871C58.3618 40.6871 59.4119 40.3919 59.4119 41.4705V45.1454C59.4119 47.0329 56.5225 46.0786 55.5181 46.0786C52.8575 46.0786 52.9836 44.328 52.9836 42.2423Z" stroke="black" stroke-width="4" stroke-linecap="round"/>
<path d="M55.2646 42.5533C55.2646 43.5049 55.058 44.6274 55.9904 45.1454C56.7086 45.5444 56.9062 43.1786 56.935 42.8759C57.0655 41.5061 57.1996 41.524 55.8867 40.9405C54.8731 40.49 54.8499 41.9673 54.8499 42.5533" stroke="black" stroke-width="4" stroke-linecap="round"/>
<path d="M54.2277 40.065C53.3742 40.065 52.8776 39.8887 52.5227 40.6871C52.026 41.8049 52.055 43.1572 52.1656 44.3736C52.4037 46.9926 55.3933 47.5301 57.4304 47.5301C58.664 47.5301 59.1801 45.1953 59.504 44.316C59.8238 43.448 59.8347 41.5236 59.5732 40.641C59.1983 39.3758 58.9947 39.4769 57.8566 39.224C56.9259 39.0172 56.0249 39.0282 55.0572 39.0282" stroke="black" stroke-width="4" stroke-linecap="round"/>
<path d="M69.1581 39.6502C68.5126 39.6502 66.7258 39.7326 66.6697 40.6871C66.5715 42.3567 66.9697 44.2589 68.1673 45.5025C70.929 48.3704 73.098 45.2867 73.098 42.3345C73.098 40.5479 73.5635 37.1619 70.9207 37.1619C69.6572 37.1619 68.6033 37.9436 67.8102 38.9129C67.2601 39.5853 66.6186 42.4958 67.3148 43.2791C67.8751 43.9095 69.9065 44.2123 70.7018 44.2123C71.3018 44.2123 72.1712 43.3341 71.4391 42.9681" stroke="black" stroke-width="4" stroke-linecap="round"/>
<path d="M70.6096 41.5166C70.6096 42.3066 72.0916 42.4596 72.0611 41.4244C72.0205 40.0422 69.7801 39.3739 68.7433 40.065" stroke="black" stroke-width="4" stroke-linecap="round"/>
<path d="M51.5884 56.4159C52.0854 56.4159 53.046 57.3335 53.4271 57.7309C53.9694 58.2965 55.4236 58.9592 56.1284 59.0197C57.1661 59.1087 58.1795 59.2564 59.261 59.2564C60.2347 59.2564 61.5252 58.999 62.4617 59.309C63.3378 59.599 64.3179 59.5172 65.2312 59.4931C67.5884 59.4931 69.5955 58.4704 70.5884 57.7309" stroke="black" stroke-width="4" stroke-linecap="round"/>
<path d="M41.3871 75.746C41.3871 60.9497 42.8239 46.319 42.8239 31.4907" stroke="#7D624A" stroke-width="2" stroke-linecap="round"/>
<path d="M42.824 31.4908C40.7307 31.4908 39.8818 29.6684 38.226 28.8406C37.6142 28.5346 37.2754 27.9538 36.7892 27.4676C35.956 26.6344 34.856 26.0364 34.0751 25.1845C32.7302 23.7174 30.7661 23.1746 29.6049 21.4327" stroke="#7D624A" stroke-width="2" stroke-linecap="round"/>
<path d="M43.1113 31.7781C45.3983 31.7781 47.5729 31.8247 49.8167 31.3311C53.5178 30.5168 57.173 29.1435 60.8007 28.0422C63.5324 27.213 66.3131 27.2985 68.9908 26.4617C70.8561 25.8788 73.5125 26.318 75.4726 26.318C77.4706 26.318 79.3535 26.6054 81.3318 26.6054" stroke="#7D624A" stroke-width="2" stroke-linecap="round"/>
<path d="M70.0402 6.19019C66.2039 6.19019 62.3676 6.19019 58.5313 6.19019C52.0916 6.19019 44.9289 5.30119 38.7307 7.36724C35.2377 8.53157 30.6986 9.26119 27.6665 11.4738C23.7474 14.3337 20.0932 16.3627 17.3085 20.3409C13.4834 25.8054 13.0999 32.778 10.5078 38.7028C9.01153 42.1228 6.60544 46.5694 6.47967 50.3425C6.40669 52.5319 5.85791 54.6157 6.035 56.8293C6.34898 60.754 8.45635 65.145 9.7754 68.8091C12.5234 76.4425 15.4992 84.7497 19.558 91.7745C23.0579 97.8321 28.5298 102.171 35.3042 104.487C43.7435 107.371 54.0951 108.358 63.0041 108.358C65.6611 108.358 68.737 108.878 71.1388 107.521C73.7511 106.044 76.566 104.56 78.9857 102.813C90.4618 94.5243 101.658 85.0808 105.613 70.9539C107.701 63.4975 106.172 54.3183 104.044 47.0991C102.442 41.6653 101.063 36.2223 99.2309 30.8559C97.8961 26.9466 95.9738 21.8358 92.6656 19.1639C88.3395 15.6697 82.3231 13.9816 77.2071 11.84C74.7717 10.8206 71.7634 10.1121 69.5694 9.0151" stroke="#DD5250" stroke-width="12" stroke-linecap="round"/>
<path d="M16.8376 23.1396C18.1596 23.4334 20.5125 26.4312 21.4935 27.3509C24.4593 30.1313 27.2276 33.1069 30.2298 35.8518C34.7818 40.0135 39.2767 44.2508 43.6743 48.5639C51.3922 56.1334 59.9326 62.672 67.6861 70.2215C71.0302 73.4777 74.5164 76.6403 78.0441 79.664C79.4174 80.8412 80.995 81.7187 82.2814 82.9336C84.3467 84.8842 88.0772 86.5213 89.3437 89.0543" stroke="#DD5250" stroke-width="9" stroke-linecap="round"/>
<path d="M63.2883 88.4733C62.258 88.4733 63.4849 90.791 63.4849 91.4223" stroke="#B86999" stroke-width="4" stroke-linecap="round"/>
<path d="M71.1782 94.5222C71.1782 96.0316 71.2409 97.5423 70.5884 98.8474" stroke="#B86999" stroke-width="4" stroke-linecap="round"/>
</svg>
