<svg width="159" height="160" viewBox="0 0 159 160" fill="none" xmlns="http://www.w3.org/2000/svg">
<path d="M63.757 25.0599C75.7569 22.5599 88.7217 33.0949 101.757 44.06C116.731 56.6559 132.757 80.06 131.257 84.56C129.757 89.06 43.757 131.56 41.2568 131.56C38.7567 131.56 34.6911 131.71 31.757 129.06C29.5451 127.062 27.7568 124.54 27.7568 121.56C27.7569 116.06 55.2086 26.8408 63.757 25.0599Z" fill="#FFDE31"/>
<path d="M63.757 25.0599C75.7569 22.5599 88.7217 33.0949 101.757 44.06C116.731 56.6559 132.757 80.06 131.257 84.56M63.757 25.0599C55.2086 26.8408 27.7569 116.06 27.7568 121.56C27.7568 124.54 29.5451 127.062 31.757 129.06C34.6911 131.71 38.7567 131.56 41.2568 131.56C43.757 131.56 129.757 89.06 131.257 84.56M63.757 25.0599C63.757 25.0599 75.6447 49.4792 87.257 60.5599C101.528 74.1773 131.257 84.56 131.257 84.56" stroke="black" stroke-width="5"/>
<path d="M31.257 113.56C33.2017 115.505 36.0924 119.338 38.257 121.06C41.757 123.844 47.2463 127.318 47.2463 127.318" stroke="#AB5EDB" stroke-width="8" stroke-linecap="round"/>
<path d="M40.257 83.5599C40.257 83.5599 47.0494 97.3242 54.757 103.56C61.8528 109.301 74.757 114.06 74.757 114.06" stroke="#AB5EDB" stroke-width="8" stroke-linecap="round"/>
<path d="M52.757 50.5599C59.957 64.9599 69.9236 75.2266 74.257 79.0599C78.5903 82.8932 105.257 98.0599 105.257 98.0599" stroke="#AB5EDB" stroke-width="9" stroke-linecap="round"/>
<path d="M54 46.5434C54 46.5434 65.5352 65.9922 76.3981 75.625C88.5507 86.4014 113 96.5434 113 96.5434" stroke="black" stroke-width="3" stroke-linecap="round" stroke-linejoin="round"/>
<path d="M50 54.5434C50 54.5434 60.1666 72.4363 69.7407 81.2985C80.4514 91.2128 102 100.543 102 100.543" stroke="black" stroke-width="3" stroke-linecap="round" stroke-linejoin="round"/>
<path d="M42.757 79.836C42.757 79.836 51.3365 93.9126 58.4359 100.468C66.378 107.801 81.054 113.649 81.054 113.649" stroke="black" stroke-width="3" stroke-linecap="round" stroke-linejoin="round"/>
<path d="M37.757 87.836C37.757 87.836 45.18 100.384 51.2987 106.242C58.1438 112.795 70.757 118.06 70.757 118.06" stroke="black" stroke-width="3" stroke-linecap="round" stroke-linejoin="round"/>
<path d="M28.757 114.668C28.757 114.668 32.5804 120.841 35.5492 123.67C38.8705 126.835 44.7129 129.239 44.7129 129.239" stroke="black" stroke-width="3" stroke-linecap="round" stroke-linejoin="round"/>
<path d="M32.757 107.882C32.757 107.882 37.2242 115.048 40.9311 118.379C45.0781 122.105 52.757 125.06 52.757 125.06" stroke="black" stroke-width="3" stroke-linecap="round" stroke-linejoin="round"/>
<path d="M63.757 25.0599C75.7569 22.5599 88.7217 33.0949 101.757 44.06C116.731 56.6559 132.757 80.06 131.257 84.56M63.757 25.0599C55.2086 26.8408 27.7569 116.06 27.7568 121.56C27.7568 124.54 29.5451 127.062 31.757 129.06C34.6911 131.71 38.7567 131.56 41.2568 131.56C43.757 131.56 129.757 89.06 131.257 84.56M63.757 25.0599C63.757 25.0599 75.6447 49.4792 87.257 60.5599C101.528 74.1773 131.257 84.56 131.257 84.56" stroke="black" stroke-width="5"/>
<path d="M83.5582 50.6261C83.5582 50.6261 86 21.2606 80.5 12.5954C78.1184 8.84324 71 5.37439 71 5.37439" stroke="#FF215E" stroke-width="8" stroke-linecap="round" stroke-linejoin="round"/>
<path d="M77.4091 15.4838C83.7643 27.8041 79.4091 50.6261 79.4091 50.6261C79.4091 50.6261 82.8287 55.138 85 54.4773C87.0816 53.8439 87.5 49.6633 87.5 49.6633C87.5 49.6633 91.5 21.2606 85 11.1512C81.0447 4.99961 70.5913 -3.14555 67.5 3.44877C64.8009 9.20635 74.4908 9.82625 77.4091 15.4838Z" stroke="black" stroke-width="2" stroke-linecap="round" stroke-linejoin="round"/>
<path d="M114.5 48.0434C114.5 48.0434 112.5 32.5434 114.5 28.0434C116.5 23.5434 136.5 39.5434 136.5 37.0434C136.5 30.6473 129.785 26.573 133 21.0434C136.847 14.4253 148.653 25.6615 152.5 19.0434C155.715 13.5138 150 4.5434 150 4.5434" stroke="#FF215E" stroke-width="6" stroke-linecap="round" stroke-linejoin="round"/>
<path d="M37 4.5434C37 4.5434 27.7926 10.8153 28.5 16.0434C29.346 22.2955 43.5 17.5434 43.5 21.0434C43.5 24.5434 30.4894 26.8524 31.5 33.5434C32.2553 38.5434 48.9435 30.9556 51 38.5434C52.6225 44.5299 43.5 52.5434 43.5 52.5434" stroke="#2971FF" stroke-width="5" stroke-linecap="round" stroke-linejoin="round"/>
<path d="M105.5 68.0434C105.5 68.0434 119.514 60.6928 128.562 57.6981C139.514 54.0735 153.8 53.9834 153.8 53.9834" stroke="#2971FF" stroke-width="7" stroke-linecap="round" stroke-linejoin="round"/>
<path d="M131.783 53.7061C120.892 55.7116 100.5 68.0434 100.5 68.0434L105.186 71.0336C105.186 71.0336 123.61 63.6927 136.434 59.674C144.457 57.1599 156.132 61.0288 157.151 53.8073C158.17 46.5859 142.674 51.7005 131.783 53.7061Z" stroke="black" stroke-width="2" stroke-linecap="round" stroke-linejoin="round"/>
<rect x="35.8715" y="65.2166" width="6" height="7" transform="rotate(27.1872 35.8715 65.2166)" fill="#FF215E" stroke="black"/>
<rect x="89.8291" y="7.25006" width="6" height="7" transform="rotate(47.036 89.8291 7.25006)" fill="#2971FF" stroke="black"/>
<rect x="96.8291" y="27.2501" width="6" height="7" transform="rotate(47.036 96.8291 27.2501)" fill="#2971FF" stroke="black"/>
<rect x="115.099" y="98.2886" width="5.9333" height="6.24327" transform="rotate(50.4244 115.099 98.2886)" fill="#2971FF" stroke="black"/>
<rect x="150.873" y="84.3056" width="5.9333" height="6.24327" transform="rotate(55.2328 150.873 84.3056)" fill="#FFA831" stroke="black"/>
<rect x="138.268" y="97.4927" width="5.9333" height="6.24327" transform="rotate(20.5258 138.268 97.4927)" fill="#FFA831" stroke="black"/>
<rect x="54.0127" y="18.2503" width="5.9333" height="6.24327" transform="rotate(43.6037 54.0127 18.2503)" fill="#FFFF4D" stroke="black"/>
<rect x="138.121" y="76.2244" width="5.9333" height="6.24327" transform="rotate(60.6144 138.121 76.2244)" fill="#FFFF4D" stroke="black"/>
<rect x="68.9646" y="12.2343" width="6" height="7" transform="rotate(37.8291 68.9646 12.2343)" fill="#FF215E" stroke="black"/>
<rect x="129.47" y="7.23845" width="6" height="7" transform="rotate(55.5936 129.47 7.23845)" fill="#FF215E" stroke="black"/>
<rect x="145.925" y="112.215" width="6" height="7" transform="rotate(63.3088 145.925 112.215)" fill="#FF215E" stroke="black"/>
<path d="M48.5001 40.0435C49.1859 45.4253 37.1051 52.2037 42 54.5434C45.0767 56.014 47.954 52.7716 50.0001 50.0435C54.5 44.0434 55.2425 41.7759 53 36.5434C50 29.5433 35.5304 35.5435 34.5 32.5434C33.4696 29.5433 48.3216 24.9279 45.5 19.0434C43.582 15.0434 34.5 18.0435 32 15.0434C28.5178 10.8647 39.7466 9.43129 39 4.0434C37.9593 -3.46745 23.0894 11.5471 27.0001 18.0435C29.4337 22.0862 38.0001 23.0435 38.0001 23.0435C38.0001 23.0435 28.002 27.6115 29 33.5434C30.2966 41.2505 47.4853 32.0807 48.5001 40.0435Z" stroke="black" stroke-width="2" stroke-linecap="round" stroke-linejoin="round"/>
<path d="M115 25.0434C107.971 28.5207 108.5 50.5434 115 50.5434C121.5 50.5434 112.5 33.5434 118 30.5434C121.75 28.4977 133.609 42.8374 138 40.0434C143.5 36.5434 130.515 26.5082 136 22.0434C139.5 19.1945 146.957 26.9815 152 23.5434C156.046 20.7848 157.08 17.4061 156.5 12.5434C155.861 7.18067 151.993 -0.952459 147.5 2.04338C144.5 4.04339 152.316 12.4112 149.5 18.0434C147.5 22.0434 138 11.0434 131.5 18.0434C127.913 21.9067 131.5 31.5434 131.5 31.5434C131.5 31.5434 122.029 21.5661 115 25.0434Z" stroke="black" stroke-width="2" stroke-linecap="round" stroke-linejoin="round"/>
</svg>
