<svg width="136" height="134" viewBox="0 0 136 134" fill="none" xmlns="http://www.w3.org/2000/svg">
<circle cx="65.6456" cy="66.1916" r="62.3473" fill="#FFDE31"/>
<path d="M92.8463 122.824C83.5091 125.314 55.787 127.205 46.9415 124.368C26.694 117.874 12.4441 104.829 7.02423 84.3544C2.83009 68.5099 4.85035 51.2189 10.4187 35.9059C12.2458 30.8814 14.3438 26.152 18.1334 22.3623C22.9751 17.5207 30.9014 11.4839 37.4374 9.23009C44.1382 6.91947 50.1661 4.15552 57.3243 4.15552C63.2769 4.15552 69.0835 4.91894 74.8795 5.97276C80.8764 7.0631 87.8704 7.79908 92.8463 11.8702C95.174 13.7747 97.9287 15.8101 100.527 17.2534C106.172 21.0167 119.315 32.6327 121.239 39.1744M92.8463 122.824C98.6921 121.265 87.2407 124.986 92.8463 122.824ZM92.8463 122.824C99.2607 120.35 107.982 115.298 112.926 110.354C118.914 104.366 122.882 94.1264 122.882 94.1264C124.335 87.1852 128.282 71.2727 126.434 64.1133C126.434 64.1133 122.955 42.7291 121.239 39.1744M121.239 39.1744C120.287 37.2029 121.854 41.2663 121.239 39.1744Z" stroke="black" stroke-width="7" stroke-linecap="round"/>
<path d="M29.0548 82.3572C31.0984 82.3572 33.1802 84.1581 35.2884 84.2752C37.7966 84.4146 40.7315 85.3593 43.227 85.9535C52.4087 88.1396 61.4084 89.0703 70.7722 89.0703C74.1175 89.0703 77.3164 88.5908 80.6022 88.5908C81.7155 88.5908 82.8846 87.8971 83.9588 87.6584C85.265 87.3682 86.798 87.5664 88.0346 87.0457C91.6113 85.5398 102.944 83.3162 99.0634 83.3162" stroke="white" stroke-width="9" stroke-linecap="round"/>
<path d="M39.8055 47.0435C37.0168 47.0435 35.663 47.408 33.2692 48.6049C31.2871 49.5959 28.7323 51.3151 27.1322 52.8536C25.4387 54.482 23.5516 56.1032 22.4115 58.1553C21.5972 59.621 19.5428 61.314 19.5428 63.0576" stroke="black" stroke-width="7" stroke-linecap="round"/>
<path d="M90.9605 48.5769C96.4552 47.3078 100.735 49.7309 105.5 52C116 57 114.479 58.9096 114.479 58.9096" stroke="black" stroke-width="7" stroke-linecap="round"/>
<path d="M77.0629 66.6523C82.5 64.0377 85.8756 62 92 62C104.338 62 105.169 68.2693 105.169 66.6523" stroke="black" stroke-width="7" stroke-linecap="round"/>
<path d="M31 65.6523C36.4371 63.0377 39.8128 61 45.9371 61C58.2755 61 59.1064 67.2693 59.1064 65.6523" stroke="black" stroke-width="7" stroke-linecap="round"/>
<path d="M25.7523 75.8032C25.7523 80.4634 26.3814 84.7542 29.1658 88.6944C32.8801 93.9506 36.6891 98.4687 41.9661 102.257C47.509 106.237 52.9703 109.054 59.5236 110.773C63.4019 111.79 67.0376 112.08 71.0348 112.08C73.5998 112.08 76.003 111.105 78.3701 110.119C80.7283 109.137 83.5789 109.239 85.8143 107.831C88.4895 106.147 91.1079 105.189 93.4037 102.893C97.1049 99.1916 100.193 93.9483 102.809 89.4206C105.543 84.6893 103.935 81.8734 103.935 76.3844M103.935 76.3844C103.935 75.4928 104.558 75.7612 103.935 76.3844ZM103.935 76.3844C103.293 77.0259 104.792 76.1851 103.935 76.3844ZM103.935 76.3844C101.708 76.9022 99.4993 77.5326 97.2892 78.1091C94.4418 78.8519 91.3095 79.1827 88.5559 80.2153C66.6848 81.7782 76.2106 81.9157 63.5674 81.7782C56.5043 81.7015 42.0143 80.4782 35.5387 78.4178C32.1994 77.3552 29.0174 75.9111 25.7523 74.8228" stroke="black" stroke-width="6" stroke-linecap="round"/>
<path d="M23.5613 93.2085C18.6984 101.812 13.9144 107.28 7.9191 103.891C1.92385 100.502 3.05611 94.0187 7.91904 85.4154C12.782 76.8121 17.566 67.4788 23.5613 70.8676C29.5565 74.2563 28.4243 84.6052 23.5613 93.2085Z" fill="#16A3ED"/>
<path d="M123.797 82.7168C117.401 78.188 114.41 72.4085 112.079 75.701C109.747 78.9934 112.764 94.3953 119.16 98.9241C125.557 103.453 130.332 100.178 132.663 96.8855C134.994 93.593 130.193 87.2456 123.797 82.7168Z" fill="#16A3ED"/>
<path d="M23.4646 68.2866C21.34 68.2866 18.663 71.2208 17.4184 72.8802C16.287 74.3887 14.9961 75.7746 13.66 77.1107C11.0318 79.739 8.03865 82.4584 6.7242 86.0074C6.05297 87.8197 5.28093 89.5907 4.50909 91.3273C3.84935 92.8117 2.875 94.0447 2.875 95.7394C2.875 97.7958 3.60299 99.0819 4.99932 100.478C6.28287 101.762 7.83467 101.654 9.24796 102.439C10.0714 102.897 13.1872 102.885 13.9868 102.53C15.78 101.733 17.3345 100.779 19.0525 99.8246C22.4254 97.9508 22.6751 94.4648 23.9729 91.1276C25.5162 87.1593 25.7523 83.1629 25.7523 78.9445C25.7523 77.2588 25.499 75.5115 25.026 73.9152C24.7578 73.0098 24.602 70.6528 23.7914 70.2475" stroke="black" stroke-width="5" stroke-linecap="round"/>
<path d="M109.418 69.2671C109.418 72.8621 109.418 76.4571 109.418 80.0521C109.418 83.9314 110.473 87.2845 111.706 90.9824C113.092 95.1418 115.244 99.3024 119.713 100.478C123.056 101.358 126.705 99.988 130.08 99.988C132.2 99.988 132.778 98.9602 133.203 97.0467C133.835 94.2028 132.748 92.2708 130.824 90.3469C127.908 87.4308 124.395 85.2249 121.51 82.3398C119.183 80.0126 116.819 77.5457 114.829 74.9864C113.909 73.8043 112.786 71.228 111.052 71.228" stroke="black" stroke-width="5" stroke-linecap="round"/>
<path d="M30.9728 89.0701C35.9801 89.0701 40.8308 89.9554 45.5979 91.0148C52.9824 92.6558 61.0041 93.3857 68.6144 93.3857C71.493 93.3857 74.172 93.8652 77.0058 93.8652C78.8525 93.8652 80.4959 93.5642 82.2804 93.3857C83.9185 93.2219 85.316 92.0107 86.969 91.9472C92.0235 91.7528 96.5097 88.1111 101.461 88.1111" stroke="black" stroke-width="4" stroke-linecap="round"/>
</svg>
