<svg width="132" height="130" viewBox="0 0 132 130" fill="none" xmlns="http://www.w3.org/2000/svg">
<circle cx="66.6457" cy="66.3474" r="62.3473" fill="#FFDE31"/>
<path d="M98 57V121" stroke="#16A3ED" stroke-width="15"/>
<path d="M93.8463 122.98C84.5091 125.469 56.787 127.361 47.9415 124.524C27.694 118.029 13.4441 104.985 8.02423 84.5102C3.83009 68.6657 5.85035 51.3747 11.4187 36.0617C13.2458 31.0373 15.3438 26.3078 19.1334 22.5181C23.9751 17.6765 31.9014 11.6397 38.4374 9.38592C45.1382 7.07529 51.1661 4.31134 58.3243 4.31134C64.2769 4.31134 70.0835 5.07476 75.8795 6.12859C81.8764 7.21892 88.8704 7.9549 93.8463 12.0261C96.174 13.9305 98.9287 15.9659 101.527 17.4092C107.172 21.1725 120.315 32.7885 122.239 39.3302M93.8463 122.98C99.6921 121.421 88.2407 125.142 93.8463 122.98ZM93.8463 122.98C100.261 120.505 108.982 115.454 113.926 110.51C119.914 104.522 123.882 94.2822 123.882 94.2822C125.335 87.341 129.282 71.4285 127.434 64.2692C127.434 64.2692 123.955 42.885 122.239 39.3302M122.239 39.3302C121.287 37.3587 122.854 41.4221 122.239 39.3302Z" stroke="black" stroke-width="7" stroke-linecap="round"/>
<path d="M30 83C32.4493 83 34.9444 84.6096 37.4713 84.7143C40.4774 84.8388 43.9949 85.6832 46.986 86.2143C57.9906 88.1682 68.777 89 80 89" stroke="white" stroke-width="9" stroke-linecap="round"/>
<path d="M26.7524 75.9591C26.7524 80.6193 27.3815 84.9101 30.1658 88.8502C33.8802 94.1064 37.6891 98.6245 42.9662 102.413C48.509 106.393 53.9704 109.21 60.5236 110.929C64.402 111.946 68.0377 112.236 72.0349 112.236C74.5999 112.236 77.0031 111.261 79.3702 110.275C81.7372 109.289 82 95 82 95C82 95 81.5631 81.5768 74.5 81.5C67.437 81.4232 43.0144 80.634 36.5388 78.5736C33.1994 77.5111 30.0174 76.067 26.7524 74.9786" stroke="black" stroke-width="6" stroke-linecap="round"/>
<path d="M31.9728 89.2258C36.9802 89.2258 41.8309 90.1111 46.5979 91.1705C53.9824 92.8115 62.0041 93.5414 69.6144 93.5414C72.493 93.5414 75.172 94.0209 78.0059 94.0209" stroke="black" stroke-width="4" stroke-linecap="round"/>
<path d="M40.8055 47.1992C38.0168 47.1992 36.663 47.5637 34.2692 48.7606C32.2871 49.7516 29.7323 51.4708 28.1322 53.0093C26.4387 54.6377 24.5516 56.2589 23.4115 58.311C22.5972 59.7767 20.5428 61.4697 20.5428 63.2133" stroke="black" stroke-width="6" stroke-linecap="round"/>
<path d="M94.5 42.5C94.5 42.5 102.838 43.4356 106.885 46.8238C113 51.944 114 55 114 55" stroke="black" stroke-width="6" stroke-linecap="round"/>
<path d="M80 61.6523C85.4371 59.0377 88.8128 57 94.9371 57C107.275 57 108.106 63.2693 108.106 61.6523" stroke="black" stroke-width="8" stroke-linecap="round"/>
<path d="M32 65.808C37.4371 63.1935 40.8128 61.1558 46.9371 61.1558C59.2755 61.1558 60.1064 67.425 60.1064 65.808" stroke="black" stroke-width="7" stroke-linecap="round"/>
<path d="M90.4736 61.0648C90.4736 67.403 90.4736 73.7412 90.4736 80.0794C90.4736 82.4147 90.4736 84.7501 90.4736 87.0855C90.4736 90.5879 89.9133 94.5929 90.5979 98.016C91.1156 100.604 90.7223 103.589 90.7223 106.224C90.7223 108.47 90.971 110.675 90.971 112.926C90.971 115.914 91.2198 118.784 91.2198 121.757" stroke="black" stroke-width="3" stroke-linecap="round"/>
<path d="M105.398 63.801C105.398 81.0626 105.646 98.2723 105.646 115.538" stroke="black" stroke-width="3" stroke-linecap="round"/>
<path d="M24.5613 93.3644C19.6984 101.968 14.9144 107.436 8.9191 104.047C2.92385 100.658 4.05611 94.1746 8.91904 85.5713C13.782 76.968 18.566 67.6347 24.5613 71.0234C30.5565 74.4122 29.4243 84.7611 24.5613 93.3644Z" fill="#16A3ED"/>
<path d="M9.5 81.5C13.5 76 19.1588 68.4424 24.4646 68.4424C26.1621 69.2911 26.7523 77.1995 26.7523 79.1003C26.7523 89.7769 24.4646 106 10.5 104C-2.5 100 5.23617 90.0276 9.5 81.5Z" stroke="black" stroke-width="5" stroke-linecap="round"/>
</svg>
