<svg width="117" height="117" viewBox="0 0 117 117" fill="none" xmlns="http://www.w3.org/2000/svg">
<path d="M48.7873 32.2947C48.711 32.9393 44.4143 29.9096 43.7991 29.6439C41.6515 28.7162 39.1639 28.2406 36.8419 28.2406C34.2494 28.2406 31.6568 28.2406 29.0643 28.2406C27.1508 28.2406 26.4336 28.3684 25.1591 29.9384C23.5862 31.8759 22.2765 33.3394 22.2056 36.0369C22.1402 38.5208 24.7346 38.7298 26.6523 38.8262C31.0298 39.0463 33.9598 36.9778 36.9075 33.7846C39.6362 30.8287 41.6608 26.779 38.614 23.147C37.2061 21.4686 35.9997 21.3798 34.0197 21.3798C30.824 21.3798 27.9305 21.019 25.4544 23.5628C23.8448 25.2164 21.8872 26.4994 21.0242 28.7777C19.5332 32.7133 20.3032 38.0893 24.2074 40.0217C26.8217 41.3156 30.8952 42.0697 32.8547 39.2767C34.7533 36.5704 36.012 34.2845 36.8419 31.0299C37.43 28.7236 37.9974 26.0555 37.2685 23.7014C36.659 21.7329 35.4654 21.3571 33.8884 20.6002C31.5608 19.4831 28.2733 19.8206 25.7498 19.8206C19.8861 19.8206 19.0799 26.7194 18.9567 31.5323C18.8748 34.7329 17.6379 37.8573 17.4799 41.0265C17.4105 42.4186 16.8892 43.7441 16.8892 45.2019C16.8892 46.6168 16.8892 48.0316 16.8892 49.4465C16.8892 53.955 19.7297 58.696 21.8446 62.475C23.0895 64.6996 24.3803 66.8464 26.0451 68.764C28.2042 71.2509 29.8583 74.3321 32.1163 76.7163C33.4316 78.1051 34.9634 79.2392 36.3168 80.5625C36.7819 81.0171 38.7685 82.9736 39.4673 82.7627C41.0248 82.2929 35.5719 70.297 34.9057 69.0932C32.9749 65.604 30.0377 61.8431 29.1628 57.8839C28.5424 55.0769 29.2135 52.3938 30.4098 49.897C32.5431 45.4445 35.069 40.8887 38.4335 37.3363C41.399 34.2051 52.5638 31.8572 50.3625 39.6752C48.8932 44.8934 44.6377 47.6777 39.8283 48.7535C37.118 49.3598 34.31 49.497 31.985 47.714C28.7082 45.2011 28.9404 39.9099 29.0151 36.1235C29.1699 28.2783 33.9857 20.384 42.1418 21.3971C44.2674 21.6612 45.7625 23.7588 47.1464 25.2607C47.9665 26.1506 49.4775 27.5415 49.9687 28.7084C50.6465 30.3187 51.3268 31.7927 51.8064 33.5421C52.1641 34.8468 53.1661 36.6669 54.399 37.215C55.3931 37.657 56.6634 36.7221 57.3853 36.1408C59.59 34.3658 61.7653 32.4176 63.6697 30.2849C64.0495 29.8597 66.2131 28.0822 66.2131 27.305C66.2131 26.5196 63.0907 27.1404 62.6852 27.305C61.0419 27.9724 59.4943 28.4003 58.2386 29.7998C57.166 30.9952 57.4611 34.0718 59.42 34.1658C64.2761 34.3988 67.1926 30.4178 70.4136 27.0798C72.9667 24.434 76.0927 21.672 78.3225 18.7291C79.0823 17.7262 84.6126 18.65 85.5586 18.885C86.7471 19.1803 88.1628 18.9289 89.2505 19.4394C89.6945 19.6477 91.4851 20.0924 91.2688 19.9592C90.6541 19.5806 85.8376 17.7873 85.8376 17.0832C85.8376 16.9539 89.1583 17.0139 89.3818 17.0139C90.3226 17.0139 91.2633 17.0139 92.2041 17.0139C93.3323 17.0139 94.3395 17.6376 95.4529 17.6376" stroke="#EB35A4" stroke-width="14" stroke-linecap="round"/>
<path d="M80.6853 21.38C85.5094 21.38 90.3334 21.38 95.1575 21.38C96.8903 21.38 99.21 21.4186 100.769 20.6869C101.842 20.1833 101.175 25.1685 101.426 26.127C102.118 28.7756 101.655 32.1092 101.655 34.8589C101.655 38.9619 100.029 42.2083 98.1767 45.8084C96.5208 49.0271 94.9355 52.1481 93.1557 55.3025C91.7376 57.8159 89.7903 59.8252 87.8394 61.8515C81.5901 68.3417 75.5287 74.9142 69.9541 82.0525C67.1709 85.6166 64.3439 89.786 60.6013 92.3263C58.9249 93.4643 56.909 93.106 54.9896 93.106C53.1871 93.106 50.4819 93.0823 48.9185 92.0318C47.6238 91.1619 46.2441 90.4106 44.8 89.8489C43.8192 89.4673 42.4524 89.1128 41.5511 88.5841C38.9079 87.0336 37.4037 85.6671 36.4152 82.3124C33.8281 73.532 37.7679 63.2811 41.0752 55.4238C42.1646 52.8359 43.497 49.4467 46.5721 49.4467C49.3506 49.4467 49.8038 51.2599 49.9522 54.0032C50.1855 58.3137 49.5825 62.4651 49.3943 66.7371C49.21 70.9227 48.6348 77.8857 53.5457 79.3672C58.5478 80.8762 64.0606 79.3369 65.9341 73.6499C67.5149 68.8512 69.15 57.8016 62.8165 56.0475C56.2515 54.2294 52.6918 61.7121 51.2157 67.3089C50.0297 71.8056 50.3549 77.2043 50.7398 81.81C51.0874 85.9696 52.9493 87.9339 56.7781 88.7227C61.4496 89.6852 64.8753 87.7475 67.46 83.5945C69.612 80.1368 69.8521 76.8577 70.0526 72.8356" stroke="#EB35A4" stroke-width="14" stroke-linecap="round"/>
<path d="M56.7618 71.5881C56.6115 71.7468 56.1867 72.3601 56.1711 71.8307C56.0934 69.2071 56.1341 66.5537 56.1875 63.9304C56.3821 54.3748 61.2761 43.1282 68.379 37.1284C71.0374 34.8829 75.6382 33.0867 79.1429 34.2351C80.5781 34.7054 79.6535 39.2907 79.5039 40.1257C78.3365 46.6413 73.9054 53.2795 69.9706 58.2651C65.354 64.1146 60.1889 69.0457 54.76 74.0136C52.3581 76.2115 52.649 73.5574 53.3488 71.3975C55.0036 66.2902 57.8086 61.3146 60.5029 56.7578C65.5093 48.2908 71.3573 41.5936 78.6343 35.24C83.1797 31.2713 88.2952 27.2369 94.0418 25.5033C95.4865 25.0675 94.8868 28.8424 94.7966 29.6613C94.3869 33.382 91.852 37.1493 90.3335 40.4375C87.1114 47.4147 83.4421 54.1875 79.4055 60.6733C74.0365 69.2999 68.351 78.5279 61.0608 85.5175C60.4675 86.0863 57.5426 89.4338 56.3352 88.7054C54.3674 87.5181 61.4155 77.0582 61.6023 76.751C68.1926 65.9118 76.1424 55.8739 85.6079 47.6968C85.7727 47.5543 93.6121 41.4366 93.9598 43.0883C94.132 43.9068 93.8668 44.892 93.6316 45.6524C92.2406 50.1504 89.8065 54.3357 87.5441 58.3864C83.4228 65.7649 78.5543 72.8755 72.3498 78.4489C70.7094 79.9224 69.4074 80.9437 67.2468 80.9437C64.7358 80.9437 64.7925 76.3207 64.7527 74.724C64.6309 69.8357 64.6638 65.1809 67.7883 61.193C71.5932 56.3367 77.3304 52.084 83.4748 51.9414C84.433 51.9192 85.5612 51.5988 85.8376 52.8077C86.2437 54.5842 86.3094 56.7508 85.936 58.525C85.2143 61.9544 83.1597 65.1027 81.2268 67.8805C78.4742 71.8365 75.4838 75.5078 72.0545 78.83C67.919 82.8364 63.0061 87.2549 57.6971 89.4677C54.3108 90.879 53.4781 89.6381 53.0699 85.9507C52.6656 82.2986 52.3907 78.5368 52.8894 74.8799C53.8225 68.0382 56.828 61.7605 60.4537 56.0648C63.743 50.8976 69.3338 45.4272 75.5987 45.4272C79.4231 45.4272 79.8329 50.3776 79.6024 53.4314C79.2934 57.5243 76.8039 60.7283 74.4993 63.8611C71.921 67.3662 68.8428 70.5655 65.7208 73.5285C62.4042 76.6763 58.7637 79.5725 54.924 81.9659C52.8512 83.258 49.0397 85.9235 46.7526 83.7157C43.2957 80.3786 43.1756 74.5516 43.1756 69.9942C43.1756 64.3851 43.3747 59.5546 45.8337 54.4709C48.6624 48.623 53.517 43.1718 60.1419 42.9497C64.7707 42.7945 67.7388 45.5996 69.183 50.1743C71.1809 56.5029 69.7514 63.1051 66.7381 68.7815C64.7453 72.5354 62.1811 76.0549 59.7317 79.4884C58.0451 81.8526 56.2644 84.0344 53.9395 85.7254C51.7385 87.3264 47.0515 89.3418 44.3898 87.5619C42.4521 86.2661 42.3291 82.974 42.2239 80.8744C42.0189 76.783 42.1263 73.0543 43.1756 69.076C44.8842 62.5978 50.5445 58.2641 56.729 57.7107C59.7766 57.438 62.579 57.5804 65.2286 59.3566C67.0079 60.5495 69.3746 62.5445 69.8886 64.814C72.4443 76.0987 62.8338 83.3963 57.1884 91.5467C56.3271 92.7902 53.8907 100.457 56.7618 100.279C57.7355 100.218 56.5696 97.9273 56.3023 97.6451C55.2021 96.4834 53.3396 95.8398 51.9049 95.2889C51.3607 95.08 50.308 94.1723 50.5758 95.4448C50.8503 96.749 54.7283 98.4084 55.7116 99.1697C57.0595 100.213 58.6681 99.0671 59.1902 100.66C59.404 101.312 61.1921 105.743 61.1921 103.241C61.1921 101.129 64.0012 98.2776 65.2614 96.9175C68.1577 93.7913 71.5744 90.089 73.5969 86.2452C78.176 77.5423 83.6695 69.2401 88.8239 60.8292C90.4302 58.2081 91.9835 55.8597 94.0746 53.57C95.3964 52.1227 96.6344 49.6119 96.6344 47.5755" stroke="#EB35A4" stroke-width="14" stroke-linecap="round"/>
<path d="M77.1411 85.3097C77.3495 87.0705 81.8084 83.1568 82.1785 82.8149C83.7831 81.3324 85.9984 80.0794 87.3143 78.293C88.8892 76.155 89.9962 73.5884 91.2523 71.2071C93.3802 67.1732 95.099 62.921 96.9297 58.733C99.3194 53.2659 103.958 45.4844 101.36 39.3115C101.114 38.7273 100.563 38.6593 100.457 38.0468C100.259 36.8949 99.9156 36.1592 99.8832 34.9282C99.8376 33.1957 99.1262 31.983 97.5204 31.983" stroke="#EB35A4" stroke-width="14" stroke-linecap="round"/>
<path d="M104.313 22.9392C104.313 25.8441 104.313 28.7489 104.313 31.6537C104.313 33.7629 104.314 35.9981 103.362 37.9081C102.282 40.075 100.458 41.6673 98.8659 43.3482C98.0375 44.2229 96.2939 46.64 95.1576 46.64" stroke="#EB35A4" stroke-width="14" stroke-linecap="round"/>
<path d="M107.018 16.7605C101.009 9.41646 97.8414 6.74827 82.4241 9.21646C66.848 14.4046 68.2296 18.5843 60.5239 25.0057C60.5239 25.0057 57.2039 23.2388 49.5476 16.7605C37.5353 9.88006 30.4496 7.94885 21.867 11.4599C13.3137 14.959 11.3442 22.4975 8.58408 31.2631C6.82394 36.853 6.6753 43.7714 8.11562 49.5327C10.3994 58.668 14.7533 67.8686 19.4171 76.0004C24.2674 84.4573 29.8589 89.6634 37.5404 95.3534C44.8568 100.773 52.7509 107.411 60.5239 111.983C62.1049 113.945 61.2516 112.84 62.1049 111.983C86.5 87.5 90.5 81 90.5 81C90.5 81 101.798 66.7828 107.018 56.1497C111.006 48.0264 111.117 38.8528 111.117 30.0041C111.117 25.0125 110.371 20.859 107.018 16.7605Z" stroke="black" stroke-width="7" stroke-linecap="round"/>
<path d="M83.182 29.8897C85.9895 29.8897 88.896 30.1472 90.8477 27.9787C91.2901 27.4871 91.5461 26.7648 91.8249 26.1763C92.0908 25.615 92.6099 25.0847 92.7696 24.5258C93.0241 23.635 93.0109 23.9586 93.3016 24.6127C93.6157 25.3194 93.8067 26.1183 94.1268 26.8386C94.5212 27.726 96.6252 28.1307 97.4493 28.1307C97.9946 28.1307 98.55 27.9063 99.0129 27.9352C99.3206 27.9545 98.6111 28.2875 98.5243 28.3261C97.5243 28.7705 96.5562 29.749 95.7229 30.4434C94.5422 31.4273 93.2606 32.4589 92.0746 33.4077C91.5587 33.8204 92.7033 34.4164 92.9107 34.6237C93.3254 35.0384 93.4056 35.5254 93.5513 36.0353C93.6436 36.3583 94.1621 36.8008 94.3222 37.1211" stroke="#FBDE3B" stroke-width="10" stroke-linecap="round"/>
<path d="M110.959 26.2951C109.482 26.2951 108.596 25.245 107.119 25.245C104.504 25.245 103.137 23.7712 101.065 22.4391C96.6224 19.5834 95.2922 14.6912 94.7145 9.6077C94.5131 7.83564 94.5668 6.05594 94.5668 4.27495C94.5668 4.06167 94.7045 2.3981 94.3371 3.22481C93.2847 5.59261 93.4415 8.47609 93.3854 11.0024C93.3121 14.3008 91.7659 17.7655 90.1037 20.5357C88.0797 23.9091 84.6804 26.2919 81.1283 27.7391C79.711 28.3165 73.3528 29.7927 76.0503 30.3062C79.1441 30.8952 85.5543 33.6587 88.3644 36.173C90.3101 37.9139 91.2071 40.0365 92.6306 42.2113C94.0475 44.376 94.936 46.7506 95.8795 49.1521C96.1971 49.9606 96.6343 52.5148 96.6343 51.6462C96.6343 49.2668 97.2875 46.824 97.5039 44.4429C97.7193 42.0742 98.2095 38.8417 99.6082 36.7847C100.095 36.0694 100.866 34.8232 101.524 34.2532C103.122 32.8684 104.63 31.4156 106.25 30.0362C107.787 28.727 109.441 27.5796 110.959 26.2951ZM110.959 26.2951C117.712 26.2951 111.135 26.1458 110.959 26.2951Z" stroke="black" stroke-width="6" stroke-linecap="round"/>
<path d="M15.7406 76.9432C18.6733 76.9432 21.1256 76.8224 23.8515 75.5643C27.3272 73.9601 26.991 69.3238 28.6399 66.5413C29.1478 65.6841 29.0375 64.7422 29.9103 64.044C30.0927 63.898 30.2034 63.0167 30.2034 63.9462C30.2034 66.0477 31.4236 67.764 32.4619 69.5272C33.6592 71.5604 35.001 74.1568 37.5217 74.7499C38.3426 74.9431 39.1765 74.6336 39.9756 74.9888C41.2354 75.5487 42.5214 75.5751 43.8845 75.5751C44.8662 75.5751 43.3237 76.0112 43.1135 76.0637C41.322 76.5116 39.6675 77.1268 37.956 77.801C36.7737 78.2668 35.2238 78.9588 34.3077 79.8749C33.8108 80.3718 33.1569 80.6566 32.4619 80.6566C30.6667 80.6566 25.2812 80.6566 27.0763 80.6566C28.5169 80.6566 30.7574 81.4752 31.5281 82.8065C31.9686 83.5673 31.9397 84.6326 32.1687 85.4341C32.4016 86.2494 33.1001 86.9349 33.3414 87.7795C33.413 88.0302 33.8327 88.8526 33.678 88.04C33.4509 86.8481 32.3588 85.0545 31.5715 84.1746C30.4577 82.9298 29.3337 80.6566 27.4672 80.6566" stroke="#FBDE3B" stroke-width="10" stroke-linecap="round"/>
<path d="M35.0895 86.7154C35.1406 87.0727 35.3072 86.367 35.3284 86.3245C35.554 85.8733 36.0064 85.5126 36.2622 85.065C36.6233 84.433 37.2392 84.0345 37.6303 83.4363C38.3604 82.3196 39.7802 81.4216 39.7802 79.8749" stroke="#FBDE3B" stroke-width="10" stroke-linecap="round"/>
<path d="M34.894 65.803C34.894 66.6511 35.6897 67.5014 36.4576 67.7574" stroke="#FBDE3B" stroke-width="10" stroke-linecap="round"/>
<path d="M11.6029 74.086H3.48066C0.227626 74.086 14.3924 79.4731 18.7734 82.4543C22.4705 84.9703 25.8037 87.4231 29.1763 90.314C32.1208 92.8379 32.5698 96.2239 33.6066 99.8801C33.9439 101.07 34.1973 102.095 34.1973 103.326C34.1973 103.637 34.0758 104.81 34.4927 104.081C36.3719 100.792 36.8276 95.9805 37.9713 92.2994C39.1837 88.3967 40.4725 85.532 43.3532 82.6512C46.2052 79.7993 49.6905 77.833 53.3296 76.1535C55.2354 75.2739 57.1315 74.3674 59.0069 73.4297C59.9491 72.9586 58.8468 73.4953 58.3998 73.4953C55.9115 73.4953 53.9056 72.8806 51.4754 72.4616C46.4676 71.5982 43.108 69.629 39.4152 66.0131C38.2545 64.8766 36.9168 63.8818 36.2648 62.3376C35.5989 60.7606 34.8134 59.2172 34.0332 57.694C32.6284 54.9512 32.7158 53.4587 32.0585 50.4542C31.8737 49.6091 31.4561 44.9561 31.0797 42.2089C30.2979 36.503 30.5418 53.8258 28.881 56.7915C26.826 60.4611 25.1069 64.107 22.6129 67.5226C20.0707 71.0044 16.0246 74.086 11.6029 74.086Z" stroke="black" stroke-width="6" stroke-linecap="round"/>
</svg>
