<svg width="101" height="103" viewBox="0 0 101 103" fill="none" xmlns="http://www.w3.org/2000/svg">
<ellipse cx="53.4089" cy="81.2357" rx="38.1606" ry="17.3967" fill="white"/>
<path d="M24.7751 65.5381C24.7751 66.7176 24.8023 68.5097 23.6114 69.2102C22.8479 69.6593 21.9264 69.8159 21.1547 70.2446C20.3085 70.7147 19.4025 71.8017 18.7238 72.5203C15.7292 75.6911 15 80.1692 15 84.39" stroke="black" stroke-width="4" stroke-linecap="round"/>
<path d="M77 65C77.1267 65.878 79.6307 67.0529 80.336 67.6217C82.0562 69.0091 84.0348 70.2745 85.8214 71.5841C86.9001 72.3747 87.6508 73.7664 88.8995 74.3845C89.3219 74.5937 90 76.1129 90 75.9933" stroke="black" stroke-width="4" stroke-linecap="round"/>
<path d="M19.7378 7.72044L64.6326 3.23096L83.1517 9.96517V64.4001L35.451 69.4508L19.7378 61.5942V7.72044Z" fill="#F3C891"/>
<path d="M53.1695 71.5892C53.0759 73.1819 51.1767 75.2121 52.0576 76.7095C52.736 77.8629 53.8846 79.1617 55.0315 79.7351" stroke="#B86999" stroke-width="4" stroke-linecap="round"/>
<path d="M54.1005 70.8911C54.7465 70.8911 55.5241 70.6924 55.9624 71.2402C56.6683 72.1225 57.9869 72.6338 58.8716 73.3219C59.9756 74.1806 58.5225 76.8926 58.5225 78.3388" stroke="#B86999" stroke-width="4" stroke-linecap="round"/>
<path d="M56.195 81.597C56.195 83.9633 56.2498 86.1799 55.7425 88.4629C55.4006 90.0013 56.2902 91.5332 57.0355 92.7944C57.7244 93.9603 58.2917 95.2726 59.0914 96.3631C59.35 96.7158 60.1989 98.2399 59.6861 96.9579" stroke="#B86999" stroke-width="4" stroke-linecap="round"/>
<path d="M59.4534 79.037C59.6112 80.4572 60.9605 81.6143 61.6644 82.7738C62.2316 83.708 62.9093 85.5964 63.8754 86.2002C64.743 86.7424 64.8596 88.2029 65.621 88.8121C66.0184 89.13 65.7374 90.8898 65.7374 91.2946C65.7374 93.135 65.7374 94.9754 65.7374 96.8158C65.7374 98.1145 64.6147 97.6562 63.5134 97.6562C62.9875 97.6562 61.3348 97.928 61.0826 97.4235" stroke="#B86999" stroke-width="4" stroke-linecap="round"/>
<path d="M61.0826 96.4925C60.7208 96.0855 60.8499 95.5039 60.8499 94.9927C60.8499 93.0402 60.8499 91.0878 60.8499 89.1354C60.8499 87.6665 60.8008 83.3397 60.3973 84.7521C60.0057 86.1228 60.3097 88.4487 60.6171 89.7689C60.7609 90.3866 61.3031 93.6997 62.2463 93.6997C63.2241 93.6997 62.6517 89.5794 62.5695 89.1871C62.3121 87.9571 61.7372 86.4714 60.9662 85.4632C60.894 85.3688 60.1775 84.3927 60.1775 84.7909C60.1775 85.8503 61.2597 86.7449 61.8584 87.4932C62.8881 88.7804 64.0077 89.9999 65.0909 91.243C65.9433 92.2211 68.1949 94.407 65.7374 92.7687" stroke="#B86999" stroke-width="4" stroke-linecap="round"/>
<path d="M53.402 74.8476C54.059 74.8476 55.7294 76.7616 55.7294 75.7786C55.7294 75.3991 55.5264 73.6435 55.4966 74.1494C55.4149 75.5387 56.396 76.8632 56.8931 78.106" stroke="#B86999" stroke-width="4" stroke-linecap="round"/>
<path d="M56.3873 87.4178C56.955 87.4178 57.2523 87.9485 57.5633 88.3135C58.601 89.5316 59.4283 90.8731 60.3324 92.1759C60.4561 92.3542 61.0605 93.4586 61.0303 92.7357C61.0211 92.5152 60.8321 92.285 60.7572 92.078" stroke="#B86999" stroke-width="4" stroke-linecap="round"/>
<path d="M60.3475 79.1051C60.4697 79.4806 61.2525 80.001 61.5462 80.2806C62.2073 80.91 62.8557 81.6045 63.4125 82.3168C64.0582 83.1428 64.8764 83.9233 65.4685 84.7728C66.1402 85.7365 66.4406 86.7743 66.9327 87.7956C67.1131 88.1698 67.4486 88.5704 67.4486 88.9921C67.4486 90.3928 66.7323 91.5936 66.0982 92.8546C65.38 94.2829 64.3446 95.8947 64.1712 97.4937C64.1046 98.1082 64.0382 98.1268 63.625 97.7456" stroke="#B86999" stroke-width="4" stroke-linecap="round"/>
<path d="M18.2818 7.35303C18.2818 20.4554 18.2818 33.5579 18.2818 46.6603C18.2818 50.4127 18.6945 54.4195 17.9878 58.1421C17.8939 58.6369 18.0021 60.204 17.5602 60.4178" stroke="#7D624A" stroke-width="4" stroke-linecap="round"/>
<path d="M17.5602 60.4178C19.3198 60.4989 20.7513 61.6886 22.2644 62.4608C25.0421 63.8784 27.4569 66.008 29.9354 67.8526C30.8593 68.5402 35.5248 71.0949 34.5 70.5" stroke="#7D624A" stroke-width="4" stroke-linecap="round"/>
<path d="M35.5 70.5C45.5 69.5 48.4495 68.9131 55.5679 67.5034C59.1108 66.8019 62.7246 66.0209 66.3261 65.6674C71.4958 65.16 77.3824 64 82.5 64" stroke="#7D624A" stroke-width="4" stroke-linecap="round"/>
<path d="M81.7882 11.0768C81.7882 28.7657 82.2693 67.5 82.2693 64.1416" stroke="#7D624A" stroke-width="4" stroke-linecap="round"/>
<path d="M19.0035 6.65473C29.7331 6.65473 40.2783 5.53712 50.8904 4.09459C52.5589 3.8678 54.256 3.78796 55.9154 3.49981C57.0737 3.29866 61.8173 2 63 2" stroke="#7D624A" stroke-width="4" stroke-linecap="round"/>
<path d="M62.3033 2C62.3449 2.32154 65.8049 2.88997 66.3393 3.1637C68.7127 4.37936 71.2133 5.81464 73.7564 6.65481C75.5051 7.23251 77.4195 7.56244 79.0085 8.51673C80.1097 9.17799 81.1961 9.91911 82.2694 10.6114" stroke="#7D624A" stroke-width="4" stroke-linecap="round"/>
<path d="M33.6681 85.7002V95.2425" stroke="black" stroke-width="4" stroke-linecap="round"/>
<path d="M47.1182 30.9762C47.1182 29.0846 50.8403 29.2307 52.2385 29.2307C53.1545 29.2307 54.3332 28.8994 54.3332 30.1099V34.2346C54.3332 36.353 51.0901 35.2819 49.9629 35.2819C46.9767 35.2819 47.1182 33.3172 47.1182 30.9762Z" stroke="black" stroke-width="4" stroke-linecap="round"/>
<path d="M49.6784 31.3253C49.6784 32.3933 49.4465 33.6532 50.493 34.2345C51.2991 34.6824 51.5209 32.0271 51.5532 31.6873C51.6996 30.1499 51.8502 30.17 50.3766 29.5151C49.239 29.0095 49.2129 30.6675 49.2129 31.3253" stroke="black" stroke-width="4" stroke-linecap="round"/>
<path d="M48.5147 28.5325C47.5566 28.5325 46.9993 28.3346 46.601 29.2307C46.0435 30.4852 46.0761 32.003 46.2002 33.3683C46.4674 36.3078 49.8228 36.9111 52.1092 36.9111C53.4938 36.9111 54.073 34.2906 54.4366 33.3036C54.7955 32.3294 54.8077 30.1695 54.5142 29.179C54.0934 27.7589 53.8649 27.8724 52.5876 27.5886C51.543 27.3564 50.5317 27.3688 49.4456 27.3688" stroke="black" stroke-width="4" stroke-linecap="round"/>
<path d="M65.2719 28.0669C64.5474 28.0669 62.5421 28.1594 62.4791 29.2306C62.3688 31.1046 62.8158 33.2395 64.16 34.6354C67.2595 37.8542 69.694 34.3931 69.694 31.0796C69.694 29.0744 70.2164 25.274 67.2502 25.274C65.8321 25.274 64.6493 26.1514 63.7591 27.2394C63.1417 27.994 62.4217 31.2607 63.2031 32.1399C63.832 32.8473 66.112 33.1872 67.0046 33.1872C67.678 33.1872 68.6538 32.2016 67.8321 31.7908" stroke="black" stroke-width="4" stroke-linecap="round"/>
<path d="M66.9012 30.1616C66.9012 31.0483 68.5645 31.22 68.5304 30.0582C68.4847 28.5068 65.9702 27.7567 64.8065 28.5324" stroke="black" stroke-width="4" stroke-linecap="round"/>
<path d="M50 47C52.5168 49.6245 54.3257 50.0967 58 50C60.6457 50 64.3857 47.83 65.5 47" stroke="black" stroke-width="4" stroke-linecap="round"/>
<path d="M34.1027 68.5796C34.1027 51.9727 35.7153 35.5516 35.7153 18.9088" stroke="#7D624A" stroke-width="2" stroke-linecap="round"/>
<path d="M35.7153 18.9089C33.3658 18.9089 32.413 16.8636 30.5547 15.9344C29.8679 15.5911 29.4877 14.9392 28.942 14.3934C28.0069 13.4583 26.7723 12.7872 25.8958 11.831C24.3863 10.1843 22.1819 9.57511 20.8785 7.62012" stroke="#7D624A" stroke-width="2" stroke-linecap="round"/>
<path d="M36 18.998C41 18.998 47 17 59.5 16C59.5 16 73 14 81.5 11.5" stroke="#7D624A" stroke-width="2" stroke-linecap="round"/>
<path d="M58.6839 82.8644C57.5276 82.8644 58.9046 85.4657 58.9046 86.1742" stroke="#B86999" stroke-width="4" stroke-linecap="round"/>
<path d="M67.5393 89.6534C67.5393 91.3475 67.6097 93.0431 66.8773 94.5079" stroke="#B86999" stroke-width="4" stroke-linecap="round"/>
<path d="M65.3692 30.5122C65.0481 30.5122 64.5636 30.615 64.331 30.3825C64.132 30.1834 63.6088 29.8908 64.0344 29.678" stroke="black" stroke-width="3" stroke-linecap="round"/>
</svg>
